<svg width="80" height="80" viewBox="0 0 80 80" fill="none" xmlns="http://www.w3.org/2000/svg">
<rect width="80" height="80" rx="15" fill="#F44236"/>
<path d="M59.375 27H58.25V54H59.375C59.9375 54 60.5 54.5625 60.5 55.125V57.375C60.5 58.0078 59.9375 58.5 59.375 58.5H42.5V52.875C42.5 52.3125 41.9375 51.75 41.375 51.75H39.125C38.4922 51.75 38 52.3125 38 52.875V58.5H21.125C20.4922 58.5 20 58.0078 20 57.375V55.125C20 54.5625 20.4922 54 21.125 54H22.1797V27H21.125C20.4922 27 20 26.5078 20 25.875V23.625C20 23.0625 20.4922 22.5 21.125 22.5H59.375C59.9375 22.5 60.5 23.0625 60.5 23.625V25.875C60.5 26.5078 59.9375 27 59.375 27ZM38 30.1641V32.9062C38 33.3281 38.4219 33.75 38.8438 33.75H41.5859C42.0078 33.75 42.5 33.3281 42.5 32.9062V30.1641C42.5 29.7422 42.0078 29.25 41.5859 29.25H38.8438C38.4219 29.25 38 29.7422 38 30.1641ZM38 36.9141V39.6562C38 40.0781 38.4219 40.5 38.8438 40.5H41.5859C42.0078 40.5 42.5 40.0781 42.5 39.6562V36.9141C42.5 36.4922 42.0078 36 41.5859 36H38.8438C38.4219 36 38 36.4922 38 36.9141ZM29 30.1641V32.9062C29 33.3281 29.4219 33.75 29.8438 33.75H32.5859C33.0078 33.75 33.5 33.3281 33.5 32.9062V30.1641C33.5 29.7422 33.0078 29.25 32.5859 29.25H29.8438C29.4219 29.25 29 29.7422 29 30.1641ZM32.5859 40.5C33.0078 40.5 33.5 40.0781 33.5 39.6562V36.9141C33.5 36.4922 33.0078 36 32.5859 36H29.8438C29.4219 36 29 36.4922 29 36.9141V39.6562C29 40.0781 29.4219 40.5 29.8438 40.5H32.5859ZM33.5 49.5H47C47 45.7734 43.9766 42.75 40.25 42.75C36.4531 42.75 33.5 45.7734 33.5 49.5ZM51.5 39.6562V36.9141C51.5 36.4922 51.0078 36 50.5859 36H47.8438C47.4219 36 47 36.4922 47 36.9141V39.6562C47 40.0781 47.4219 40.5 47.8438 40.5H50.5859C51.0078 40.5 51.5 40.0781 51.5 39.6562ZM51.5 32.9062V30.1641C51.5 29.7422 51.0078 29.25 50.5859 29.25H47.8438C47.4219 29.25 47 29.7422 47 30.1641V32.9062C47 33.3281 47.4219 33.75 47.8438 33.75H50.5859C51.0078 33.75 51.5 33.3281 51.5 32.9062Z" fill="white" fill-opacity="0.9"/>
</svg>
