<svg width="42" height="42" viewBox="0 0 42 42" fill="none" xmlns="http://www.w3.org/2000/svg">
<circle cx="21" cy="21" r="21" fill="#AA47BC"/>
<path d="M21 29C19.875 29 19 28.125 19 27H22.9688C22.9688 28.125 22.0938 29 21 29ZM27.7188 24.3438C27.9062 24.5312 28 24.7812 28 25C27.9688 25.5312 27.5938 26 26.9688 26H15C14.375 26 14 25.5312 14 25C13.9688 24.7812 14.0625 24.5312 14.25 24.3438C14.8438 23.6875 16 22.7188 16 19.5C16 17.0938 17.6875 15.1562 20 14.6562V14C20 13.4688 20.4375 13 21 13C21.5312 13 21.9688 13.4688 21.9688 14V14.6562C24.2812 15.1562 25.9688 17.0938 25.9688 19.5C25.9688 22.7188 27.125 23.6875 27.7188 24.3438Z" fill="white"/>
</svg>
