<svg width="42" height="42" viewBox="0 0 42 42" fill="none" xmlns="http://www.w3.org/2000/svg">
<circle cx="21" cy="21" r="21" fill="#158C32"/>
<path d="M28.5 14C29.3125 14 30 14.6875 30 15.5V26.5C30 27.3438 29.3125 28 28.5 28H13.5C12.6562 28 12 27.3438 12 26.5V15.5C12 14.6875 12.6562 14 13.5 14H28.5ZM17.5 17C16.375 17 15.5 17.9062 15.5 19C15.5 20.125 16.375 21 17.5 21C18.5938 21 19.5 20.125 19.5 19C19.5 17.9062 18.5938 17 17.5 17ZM21 24.4062V23.8125C21 22.8125 20.0312 22 18.875 22H18.7188C18.3438 22.1875 17.9375 22.25 17.5 22.25C17.0312 22.25 16.625 22.1875 16.25 22H16.0938C14.9375 22 14 22.8125 14 23.8125V24.4062C14 24.75 14.3125 25 14.6875 25H20.2812C20.6875 25 21 24.75 21 24.4062ZM28 22.75V22.25C28 22.125 27.875 22 27.75 22H23.25C23.0938 22 23 22.125 23 22.25V22.75C23 22.9062 23.0938 23 23.25 23H27.75C27.875 23 28 22.9062 28 22.75ZM28 20.75V20.25C28 20.125 27.875 20 27.75 20H23.25C23.0938 20 23 20.125 23 20.25V20.75C23 20.9062 23.0938 21 23.25 21H27.75C27.875 21 28 20.9062 28 20.75ZM28 18.75V18.25C28 18.125 27.875 18 27.75 18H23.25C23.0938 18 23 18.125 23 18.25V18.75C23 18.9062 23.0938 19 23.25 19H27.75C27.875 19 28 18.9062 28 18.75Z" fill="white"/>
</svg>
