<svg width="43" height="43" viewBox="0 0 43 43" fill="none" xmlns="http://www.w3.org/2000/svg">
<path d="M42.5 21.8535C42.5 33.4515 33.098 42.8535 21.5 42.8535C9.90202 42.8535 0.5 33.4515 0.5 21.8535C0.5 10.2555 9.90202 0.853516 21.5 0.853516C33.098 0.853516 42.5 10.2555 42.5 21.8535Z" fill="#017864"/>
<path d="M13 19.625C13 19.5938 13 19.5625 13 19.5312C13 19.4375 13 19.3438 13.0625 19.2812L23.2188 27.125L21.125 30.75C21.0312 30.9062 20.875 31 20.6875 31H18.6562C18.375 31 18.1562 30.7812 18.1562 30.5312C18.1562 30.4688 18.1562 30.4062 18.1562 30.375L19.6875 25H16.5L15.125 26.8125C15.0312 26.9375 14.9062 27 14.75 27H13.5C13.2188 27 13 26.7812 13 26.5312C13 26.4688 13 26.4375 13 26.4062L14 23L13 19.625ZM31.7812 29.3438C31.9062 29.4375 32 29.5625 32 29.7188C32 29.8438 31.9375 29.9375 31.875 30.0312L31.2812 30.8125C31.1875 30.9375 31.0312 31 30.875 31C30.75 31 30.6562 30.9688 30.5625 30.9062L12.1875 16.6875C12.0625 16.5938 12 16.4688 12 16.3125C12 16.1875 12.0312 16.0938 12.0938 16L12.7188 15.2188C12.7812 15.0938 12.9375 15.0312 13.0938 15.0312C13.2188 15.0312 13.3125 15.0625 13.4062 15.125L19.3125 19.6875L18.1562 15.6562C18.1562 15.5938 18.1562 15.5625 18.1562 15.5C18.1562 15.25 18.375 15.0312 18.6562 15H20.6875C20.8438 15 21.0625 15.125 21.125 15.2812L24.4062 21H28C29.0938 21 31 21.9062 31 23C31 24.125 29.0938 25 28 25H26.2188L31.7812 29.3438Z" fill="white"/>
</svg>
