<svg width="80" height="80" viewBox="0 0 80 80" fill="none" xmlns="http://www.w3.org/2000/svg">
<rect width="80" height="80" rx="15" fill="#1976D3"/>
<path d="M60.875 53C61.4375 53 62 53.5625 62 54.125V56.375C62 57.0078 61.4375 57.5 60.875 57.5H18.125C17.4922 57.5 17 57.0078 17 56.375V54.125C17 53.5625 17.4922 53 18.125 53H60.875ZM22.625 45.5469L17.2812 39.7109C16.7188 39.0781 16.9297 38.0938 17.6328 37.7422L20.5156 36.2656C20.6562 36.1953 20.8672 36.125 21.0781 36.125C21.2188 36.125 21.4297 36.1953 21.6406 36.2656L26.7031 38.8672L33.9453 35.1406L22.9766 28.25C22.4141 27.6172 22.5547 26.6328 23.3281 26.2812L27.9688 23.8906C28.1094 23.8203 28.3203 23.8203 28.5312 23.8203C28.8125 23.8203 29.0234 23.8906 29.2344 24.0312L44.6328 29.7969L51.5234 26.2812C53.4219 25.2969 55.5312 24.7344 57.5703 24.875C59.9609 25.0156 61.1562 25.7891 61.7188 26.8438C62.2109 27.8281 62.0703 29.3047 60.8047 31.2734C59.6094 33.1016 57.9219 34.4375 56.0938 35.4219L35.6328 45.7578C35 46.1094 34.2969 46.25 33.5234 46.25H24.3125C23.6797 46.25 23.0469 46.0391 22.625 45.5469Z" fill="white" fill-opacity="0.9"/>
</svg>
