<svg width="42" height="42" viewBox="0 0 42 42" fill="none" xmlns="http://www.w3.org/2000/svg">
<path d="M42 21C42 32.598 32.598 42 21 42C9.40202 42 0 32.598 0 21C0 9.40202 9.40202 0 21 0C32.598 0 42 9.40202 42 21Z" fill="#4100F4"/>
<path d="M26.7812 16.2812C26.9062 16.4375 27 16.625 27 16.8125V17H23V13H23.1875C23.375 13 23.5625 13.0938 23.7188 13.2188L26.7812 16.2812ZM22 17.25C22 17.6875 22.3125 18 22.75 18H27V28.25C27 28.6875 26.6562 29 26.25 29H15.75C15.3125 29 15 28.6875 15 28.25V13.75C15 13.3438 15.3125 13 15.75 13H22V17.25ZM17 15.25V15.75C17 15.9062 17.0938 16 17.25 16H19.75C19.875 16 20 15.9062 20 15.75V15.25C20 15.125 19.875 15 19.75 15H17.25C17.0938 15 17 15.125 17 15.25ZM17 17.75C17 17.9062 17.0938 18 17.25 18H19.75C19.875 18 20 17.9062 20 17.75V17.25C20 17.125 19.875 17 19.75 17H17.25C17.0938 17 17 17.125 17 17.25V17.75ZM21.5 26C22.2188 26 22.8125 25.375 22.8125 24.5938C22.8125 23.9688 22.4062 23.4062 21.8438 23.25L20.4375 22.8125C20.25 22.7812 20.1562 22.625 20.1562 22.4375C20.1562 22.1875 20.3125 22 20.5312 22H21.4062C21.5312 22 21.6875 22.0625 21.8125 22.125C21.9062 22.1875 22.0312 22.1875 22.125 22.0938L22.4688 21.75C22.5938 21.6562 22.5938 21.4688 22.4688 21.375C22.1875 21.1562 21.8438 21.0312 21.4688 21.0312V20.25C21.4688 20.125 21.375 20 21.2188 20H20.7188C20.5938 20 20.4688 20.125 20.4688 20.25V21.0312C19.75 21.0312 19.1562 21.6562 19.1562 22.4375C19.1562 23.0625 19.5625 23.5938 20.125 23.7812L21.5312 24.2188C21.7188 24.25 21.8125 24.4062 21.8125 24.5938C21.8125 24.8438 21.6562 25 21.4375 25H20.5625C20.4375 25 20.2812 24.9688 20.1562 24.9062C20.0625 24.8438 19.9375 24.8438 19.8438 24.9375L19.5 25.2812C19.375 25.375 19.375 25.5625 19.5 25.6562C19.7812 25.875 20.125 26 20.5 26V26.75C20.5 26.9062 20.5938 27 20.75 27H21.25C21.375 27 21.5 26.9062 21.5 26.75V26Z" fill="white"/>
</svg>
