<svg width="42" height="42" viewBox="0 0 42 42" fill="none" xmlns="http://www.w3.org/2000/svg">
<circle cx="21" cy="21" r="21" fill="#00B7F3"/>
<path d="M28.5 15C29.3125 15 30 15.6875 30 16.5V27.5C30 28.3438 29.3125 29 28.5 29H13.5C12.6562 29 12 28.3438 12 27.5V16.5C12 15.6875 12.6562 15 13.5 15H18V18H24V15H28.5ZM21 20C19.875 20 19 20.9062 19 22C19 23.125 19.875 24 21 24C22.0938 24 23 23.125 23 22C23 20.9062 22.0938 20 21 20ZM23.9062 27C24.2188 27 24.5 26.6875 24.375 26.4062C24.125 25.5938 23.375 25 22.5 25H22.2188C21.8438 25.1875 21.4375 25.25 21 25.25C20.5312 25.25 20.125 25.1875 19.75 25H19.5C18.5938 25 17.8438 25.5938 17.5938 26.4062C17.4688 26.6875 17.75 27 18.0625 27H23.9062ZM23 14V17H19V14C19 13.4688 19.4375 13 20 13H22C22.5312 13 23 13.4688 23 14Z" fill="white"/>
</svg>
