<?xml version="1.0" encoding="utf-8"?>
<!-- Generator: Adobe Illustrator 24.2.0, SVG Export Plug-In . SVG Version: 6.00 Build 0)  -->
<svg version="1.1" id="Layer_1" xmlns="http://www.w3.org/2000/svg" xmlns:xlink="http://www.w3.org/1999/xlink" x="0px" y="0px"
	 viewBox="0 0 504 504" enable-background="new 0 0 504 504" xml:space="preserve">
<path fill="#64AF53" d="M6027.52-1260.69c25.8-1.38,51.62-2.23,77.46-2.32c7,0.38,14.05,0.14,21.05,0.93
	c6.08,0.74,10.98,5.55,12.88,11.23c3.57,10.64,1.78,22.05,0.01,32.85c-4.04,22.58-9.78,44.81-15.49,67.02
	c-21.95,86.58-42.78,173.44-65.68,259.78c-14.55,55.32-30.26,110.35-47.02,165.04C6016.38-904.32,6021.86-1082.52,6027.52-1260.69z"
	/>
<path fill="#64AF53" d="M5952.08-1252.18c9.67-1.78,19.39-3.37,29.18-4.47c2.97,169.58,5.92,339.17,8.86,508.76
	c0.65,30.99,0.88,61.99,1.77,92.98c-4.79,2.51-10.67,0.96-15.89,1.41c-7.68,0.5-15.46-1.06-23.04,0.3
	c-48.99,1.79-97.84,6.6-146.34,13.67c-10.15,1.54-20.37,2.74-30.43,4.78c-1.4,0.01-2.76,0.03-4.07,0.06
	c1.27-3.76,0.4-8.06,0.54-12.05c-2.82-158.43-5.21-316.89-8.19-475.31c27.4-26.08,55.04-51.94,83.18-77.22
	c14.75-13.19,30.13-26,47.72-35.26C5912.89-1244.16,5932.61-1248.47,5952.08-1252.18z"/>
<path fill="#64AF53" d="M5652.1-1009.87c27.17-28.46,54.97-56.33,83.09-83.87c-0.12,54.24-0.84,108.47-0.98,162.71
	c-0.59,12.67,0.15,25.38-0.4,38.06c-0.45,88.49-1.3,176.97-1.76,265.46c-18.99,3.94-38.08,7.48-57.01,11.73
	c-13.89,2.88-27.65,6.36-41.54,9.17c0.61-95.77,1.31-191.54,1.82-287.31c0.54-14.36-0.23-28.76,0.44-43.12
	c0.08-12.97-0.26-25.96,0.25-38.92c0.03-5.3-0.03-10.61-0.48-15.9C5640.47-998.33,5646.64-1003.81,5652.1-1009.87z"/>
<path fill="#64AF53" d="M5594.51-947.51c13.31-14.94,26.77-29.75,40.54-44.28c0.41,9.56-0.94,19.08-1.39,28.62
	c-7.24,104.76-14.47,209.53-21.72,314.29c-1.19,16.19-2.09,32.4-3.45,48.56c-63.5,16.96-126.45,36.49-187.39,61.24
	c-10.31,3.93-20.32,8.61-30.64,12.47c4.12-67.11,8.28-134.22,12.43-201.33c10.65-13.29,22.15-25.98,33.19-38.98
	C5488.44-827.51,5541.5-887.48,5594.51-947.51z"/>
<path fill="#64AF53" d="M3434.51-824c23.42,0.02,46.84-0.04,70.26,0.03c-0.03,89.14-0.03,178.29,0,267.43
	c-11.93,0.07-23.86,0.07-35.79,0c-9.37-0.43-19.59-2.03-26.67-8.73c-5.52-4.95-7.7-12.55-7.81-19.75
	C3434.5-664.68,3434.49-744.34,3434.51-824z"/>
<path fill="#64AF53" d="M5327.71-633.23c3.31-3.9,6.29-8.12,9.89-11.78c4.4,45.41,9.05,90.8,13.5,136.21
	c-65.28,31.39-128.89,67.1-186.23,111.59c-31.78,24.44-62.34,50.44-92.01,77.37c0.27,0.14,0.82,0.43,1.1,0.57l0.7,0.9
	c-0.96-0.3-1.88-0.61-2.75-0.94c12.27-16.84,25.71-32.86,38.74-49.13c48.11-58.49,96.91-116.41,144.76-175.11
	C5279.24-573.66,5303.39-603.51,5327.71-633.23z"/>
<g>
	<path fill="#00558F" d="M4457.55-968.15c42.84-2.49,87.01,2.95,126.09,21.48c24.94,12.09,48.51,28.37,65.62,50.45
		c10.27,13.4,17.55,29.23,20.09,45.98c1.61,9,1.06,18.16,1.15,27.26c0.01,34.01-0.02,68.01,0.01,102.02
		c-0.22,25.8-11.57,50.72-29.25,69.26c-19.95,21.04-45.46,36.2-72.37,46.58c-38.05,14.44-79.54,18.15-119.88,14.66
		c-38.17-3.27-76.05-14.99-107.81-36.74c-23.95-15.79-45.33-37.79-54.03-65.71c-3.4-10.67-4.84-21.91-4.67-33.08
		c0-31.33,0-62.66,0-93.99c0.07-9.65-0.42-19.35,1.06-28.93c2.59-18.86,11.17-36.6,23.34-51.14c13.81-16.51,31.32-29.59,50-40.1
		C4387.63-957.33,4422.54-966.09,4457.55-968.15z M4455.61-901.14c-15.34,1.86-30.52,5.68-44.56,12.18
		c-13.25,6.13-25.79,14.54-34.83,26.15c-6.21,7.95-10.79,17.61-10.72,27.87c0.02,37.96-0.03,75.92,0.02,113.87
		c0.64,17.23,12.63,31.62,25.87,41.5c17.62,13,38.98,20.14,60.5,23.21c33.86,4.45,69.88,0.35,99.92-16.72
		c13.68-7.93,26.24-19.06,32.66-33.8c2.95-6.63,3.21-14,3.29-21.13c-0.1-35.23,0.15-70.46-0.12-105.68
		c0.35-16.18-9.78-30.33-21.65-40.35c-14.06-11.75-31.29-19.18-48.95-23.59C4496.99-902.51,4476.08-903.4,4455.61-901.14z"/>
</g>
<g>
	<path fill="#00558F" d="M4930.63-968.17c42.56-2.43,86.42,3.02,125.29,21.31c16.36,7.77,31.8,17.57,45.6,29.32
		c13.96,12.02,26.2,26.5,33.53,43.54c5.71,12.86,8.31,26.98,8.21,41.02c-0.03,37.33,0.01,74.65-0.02,111.97
		c-0.45,19.93-6.93,39.64-18.47,55.9c-12.56,17.97-29.97,32.01-48.63,43.24c-35.19,21.18-76.26,31.4-117.12,32.43
		c-47.15,1.67-95.78-7.3-136.43-32.13c-20.45-12.45-39.64-28.11-52.35-48.69c-8.55-13.68-13.68-29.5-14.79-45.6
		c-0.47-32.04-0.07-64.11-0.2-96.16c0.33-14.38-1.16-28.97,2.05-43.13c4.93-24.17,19.76-45.3,38.23-61.22
		c21.3-18.52,46.62-32.27,73.51-40.76C4888.97-963.48,4909.76-966.91,4930.63-968.17z M4928.55-901.16
		c-23.26,2.75-46.53,10.16-65.39,24.39c-10.02,7.69-18.88,17.61-23.03,29.72c-2.72,8.04-2.02,16.66-2.13,25
		c-0.01,32.02,0.01,64.04-0.01,96.07c0.07,6.42,0.56,12.99,3.22,18.94c5.79,13.51,16.88,24.02,29.12,31.79
		c18.25,11.41,39.45,17.51,60.77,19.68c25.09,2.4,50.89,0.06,74.62-8.75c14.36-5.35,28.02-13.17,38.85-24.13
		c6.52-6.95,12.18-15.1,14.53-24.45c1.55-6.26,1.07-12.75,1.15-19.13c0-31,0-62,0-93.01c-0.08-6.37,0.4-12.84-1.16-19.08
		c-2.32-9.34-7.99-17.47-14.49-24.4c-11.94-12.15-27.33-20.35-43.34-25.77C4977.93-902,4952.9-903.84,4928.55-901.16z"/>
</g>
<g>
	<path fill="#00558F" d="M2899.88-955.22c19.46-6.84,40.78-8.34,60.99-4.09c14.59,2.94,29.38,8.67,39.62,19.89
		c5.34,5.52,8.16,12.79,11.21,19.7c47.65,107.58,95.41,215.11,143.02,322.71c-17.56,0.03-35.12,0-52.68,0.01
		c-5.35-0.06-10.76,0.32-16.04-0.81c-9.86-1.68-19.12-7.05-25.04-15.18c-4.43-5.69-6.78-12.59-9.79-19.05
		c-9.46-21.25-18.85-42.52-28.36-63.74c-56.73,0.14-113.47-0.15-170.19,0.15c-14.48,32.92-29.11,65.78-43.73,98.63
		c-15.97,0-31.94-0.02-47.9,0.01c-7.74,0-15.85-2.05-21.78-7.23c-4.99-4.36-7.35-11.37-6.14-17.85c0.62-4.69,2.87-8.91,4.76-13.17
		c43.65-97.79,86.82-195.79,130.18-293.72C2874.16-941.89,2886.72-950.49,2899.88-955.22z M2937.64-887.13
		c-18.49,41.79-37.01,83.56-55.56,125.32c37.23,0.13,74.45,0.02,111.68,0.06c-15.05-34.16-30.4-68.18-45.53-102.31
		C2944.62-871.7,2941.63-879.71,2937.64-887.13z"/>
</g>
<g>
	<path fill="#00558F" d="M2320.28-946.64c7.72-9.8,20.89-12.68,32.72-13.33c64.99-0.07,129.98,0,194.96-0.04
		c29.77,0.71,59.84,10.08,83.09,29.05c19.59,15.91,34.65,38.59,38.04,63.93c1.89,17.42,0.06,35.41-6.35,51.78
		c-5.53,14.24-14.73,26.93-26.3,36.87c13.54,11.64,23.75,27.19,28.88,44.32c4.65,15.31,5.24,31.67,2.87,47.44
		c-3.05,19.35-12.83,37.34-26.46,51.28c-20.05,20.96-48.02,33.18-76.53,36.94c-12.66,1.96-25.49,1.29-38.24,1.4
		c-57.67,0-115.34,0.01-173-0.01c-10.83-0.5-22.44-2.65-30.75-10.15c-6.64-5.96-9.21-15.15-9.21-23.83c0.01-95.99,0-191.99,0-287.98
		C2313.72-928.45,2314.05-938.9,2320.28-946.64z M2397.26-893.75c-0.04,27.24,0.02,54.48-0.03,81.71c48.58,0.09,97.17,0,145.75,0.05
		c5.8-0.07,11.62-0.89,17.12-2.75c18.09-5.69,28.84-26.06,25.8-44.33c-1.84-12.22-9.07-23.92-20.27-29.6
		c-9.37-5.02-20.27-5.38-30.65-5.08C2489.07-893.75,2443.16-893.76,2397.26-893.75z M2397.26-745.75
		c-0.03,27.25,0.01,54.49-0.02,81.73c48.6,0.05,97.21-0.01,145.81,0.03c10.72,0.18,21.86-2.88,30-10.09
		c8.69-7.72,13.18-19.41,13.44-30.88c-0.39-12.87-6.23-26.07-17.14-33.35c-8.23-5.74-18.48-7.33-28.3-7.45
		C2493.12-745.74,2445.19-745.76,2397.26-745.75z"/>
</g>
<path fill="#00558F" d="M3224.17-949.84c7.52-7.49,18.59-9.71,28.82-10.16c156.34,0,312.67,0,469.01,0c0,121,0,242,0,363
	c-14.69-0.01-29.37,0.03-44.05-0.02c-9.86-0.49-20.2-2.56-28.12-8.82c-6.99-5.47-10.37-14.45-10.58-23.13
	c-0.01-82.6,0.01-165.19-0.01-247.78c-113.6,0.06-227.2-0.13-340.79,0.1c0.15,93.18-0.05,186.37,0.1,279.55
	c-14.51,0.23-29.02,0.04-43.53,0.1c-10.6-0.45-21.95-2.58-30.07-9.91c-6.52-5.72-9.35-14.57-9.45-23.04
	c0-98.69,0.01-197.38-0.01-296.07C3215.45-934.6,3217.77-943.76,3224.17-949.84z"/>
<g>
	<path fill="#00558F" d="M3840.33-950.73c8.28-6.78,19.32-8.8,29.74-9.27c64.97-0.01,129.94,0.01,194.92-0.01
		c22,0.76,44.04,5.99,63.44,16.55c16.14,8.74,30.37,21.14,40.79,36.29c9.66,14.15,16.26,30.83,16.55,48.12
		c1.17,23.86-5.39,48.56-20.46,67.38c-3.71,4.92-8.32,9.02-12.64,13.35c15.81,13.66,26.97,32.66,30.98,53.2
		c3.62,18.99,2.6,39.18-4.53,57.27c-7.2,18.1-20.03,33.69-35.69,45.15c-22.82,16.85-51.25,24.98-79.4,25.71
		c-65.03-0.05-130.06,0.05-195.09-0.05c-10.28-0.62-21.15-2.79-29.17-9.7c-6.32-5.52-9.44-13.98-9.53-22.24
		c0.01-99.7,0.01-199.4,0-299.09C3830.35-936.55,3833.66-945.26,3840.33-950.73z M3913.25-893.74c-0.02,27.23,0.03,54.47-0.02,81.71
		c48.58,0.08,97.17-0.01,145.75,0.04c7.83-0.09,15.78-1.5,22.78-5.13c9.14-4.73,15.88-13.45,18.76-23.27
		c5.44-16.39-0.72-36.21-15.04-46.05c-8.04-5.41-17.9-7.46-27.47-7.32C4009.76-893.73,3961.5-893.77,3913.25-893.74z
		 M3913.25-745.75c-0.02,27.24,0.02,54.49-0.01,81.73c49.56,0.05,99.13,0,148.69,0.02c9.72-0.39,19.66-3.4,27.05-9.94
		c9-7.93,13.73-20.13,13.53-32.02c-0.49-10.24-4.4-20.53-11.68-27.87c-6.55-6.7-15.71-10.35-24.91-11.4
		c-8.61-0.86-17.26-0.42-25.89-0.52C3997.77-745.75,3955.51-745.76,3913.25-745.75z"/>
</g>
<path fill="#00558F" d="M5806.62-639.53c48.5-7.07,97.35-11.88,146.34-13.67c12.7,0,25.42-0.51,38.13,0.08l0.36,0.02
	c-8.44,17.25-16.62,34.66-26.27,51.29c-9.58,16.91-20.68,32.95-32.96,48c-11.76,13.97-25.72,25.9-40.26,36.87
	c-30.54,22.71-64.02,41.16-98.42,57.3c-38.28,17.9-78.05,32.45-118.52,44.52c-85.53,25.79-172.88,45-260.44,62.47
	c-48.74,8.91-97.88,15.42-146.98,21.95c-26.81,3.45-53.62,7.01-80.59,8.78c-27.98,1.99-56.01,3.69-84.07,3.67
	c-9.68,0-19.38,0.26-28.98-1.02c-0.28-0.14-0.83-0.43-1.1-0.57c29.67-26.93,60.23-52.93,92.01-77.37
	c57.34-44.49,120.95-80.2,186.23-111.59c12.94-6.29,26.1-12.22,39.36-17.81c10.32-3.86,20.33-8.54,30.64-12.47
	c60.94-24.75,123.89-44.28,187.39-61.24c8.24-2.4,16.63-4.39,25.01-6.29c13.89-2.81,27.65-6.29,41.54-9.17
	c18.93-4.25,38.02-7.79,57.01-11.73c12.24-2.5,24.59-4.42,36.9-6.55c2.34-0.74,4.94,0.46,7.24-0.69
	C5786.25-636.79,5796.47-637.99,5806.62-639.53z"/>
<path fill="#00558F" d="M3278.05-497.07c18.99-3.4,39.13-2.34,57.15,4.88c13.19,5.51,26.16,14.89,30.94,28.93
	c-7.94,2.61-16.11,7.59-24.7,4.62c-6.02-1.13-8.58-7.44-13.75-10.03c-10.89-6.63-24.24-7.74-36.64-6.21
	c-7.23,0.97-14.73,2.7-20.58,7.28c-3.45,2.64-5.82,7.1-4.76,11.51c0.51,4.83,4.84,7.98,9.17,9.32c11.65,3.65,24.01,3.43,36.08,3.27
	c13.04-0.45,26.31,2.42,37.7,8.84c9.97,5.61,18.04,15.93,18.12,27.73c-0.2,12.46-7.67,24.06-17.98,30.74
	c-14.01,9.24-31.34,11.29-47.75,11.2c-17.82-0.19-36.49-3.97-50.75-15.25c-6.59-5.31-12.13-12.13-15.09-20.12
	c7.11-2.28,14.11-6.52,21.86-5.23c4.73,0.31,9.07,2.88,11.89,6.66c8.85,8.86,22.11,10.27,34,10.64c10.31-0.41,21.57-1.31,30.01-7.9
	c5.15-4.05,6.05-12.43,1.32-17.16c-5.39-5.14-13.23-6.09-20.32-6.69c-10.68-0.76-21.4,0.86-32.06-0.49
	c-10.67-1.23-21.61-3.66-30.62-9.77c-8.35-5.96-14.75-15.36-15.39-25.8c-0.63-9.31,3.79-18.24,9.91-25
	C3254.26-490.04,3266.17-494.78,3278.05-497.07z"/>
<g>
	<path fill="#00558F" d="M2387.36-494.5c9.28-2.98,19.66-2.57,28.57,1.47c3.93,1.86,7.31,4.98,9,9.04
		c17.11,38.76,34.38,77.44,51.46,116.21c-7.45,0.05-14.9,0.04-22.34,0.02c-5.45-0.07-10.5-3.59-12.66-8.55
		c-3.84-8.71-7.8-17.37-11.55-26.11c-19.97-0.18-39.94-0.04-59.92-0.07c-5.08,11.53-10.32,23-15.26,34.6
		c-5.87,0.31-11.76,0.06-17.64,0.14c-3.68,0.07-7.81-1.73-9.16-5.35c-1.04-2.65,0.06-5.46,1.21-7.86
		c15.37-34.39,30.55-68.86,45.8-103.3C2377.09-489.46,2382.13-492.82,2387.36-494.5z M2399.38-468.93
		c-6.28,14.32-12.71,28.58-18.97,42.91c13,0.03,26,0.02,38.99,0.01c-6.33-14.22-12.69-28.42-18.98-42.65
		C2400.16-468.73,2399.64-468.86,2399.38-468.93z"/>
</g>
<path fill="#00558F" d="M2505.95-495.11c6.98-1.53,14.21-0.67,21.29-0.88c0.01,42.66,0.01,85.32,0,127.98
	c-6.74-0.26-13.58,0.6-20.25-0.51c-5.48-0.86-9.56-5.99-9.22-11.52c-0.04-34.64-0.03-69.28,0-103.91
	C2497.56-489.03,2500.88-494.01,2505.95-495.11z"/>
<g>
	<path fill="#00558F" d="M2568.98-493.06c3.98-3.01,9.23-2.82,13.97-2.95c20.72,0.07,41.45-0.08,62.17,0.07
		c16.54,0.05,33.03,9.15,40.87,23.89c5.2,9.11,5.94,20.46,2.33,30.27c-3.96,11.82-13.91,20.83-25.31,25.37
		c0.44,1.2,1.48,2.02,2.28,3c3.28,3.65,5.42,8.1,7.83,12.34c6.11,11.07,12.09,22.21,18.15,33.32c-7.41-0.02-14.81,0.03-22.22-0.02
		c-5.51-0.47-11.87-2.64-14.24-8.11c-5.18-9.73-10.61-19.33-15.93-29c-1.64-3.67-4.54-7.34-8.89-7.56
		c-11.82-0.14-23.66-0.03-35.48-0.05c0.01,14.79-0.07,29.59,0.04,44.39c-5.19,0.21-10.39,0.04-15.58,0.11
		c-4.15-0.02-8.75-1.08-11.51-4.42c-2.04-2.35-2.48-5.59-2.47-8.59c0.02-34,0.01-68.01,0-102.01
		C2564.92-486.7,2565.91-490.73,2568.98-493.06z M2594.51-472.24c-0.07,11.94,0.09,23.89-0.09,35.83
		c12.85,0.37,25.73,0.05,38.58,0.16c6.44-0.14,13.38,0.77,19.25-2.5c7.71-4.27,10.82-14.75,7.28-22.71
		c-2.46-6.71-9.52-10.9-16.52-10.8C2626.84-472.24,2610.67-472.26,2594.51-472.24z"/>
</g>
<path fill="#00558F" d="M2731.86-495.15c6.94-1.46,14.1-0.64,21.14-0.85c0,29.67,0.01,59.33-0.01,88.99
	c-0.07,3.94,1.29,8.05,4.34,10.69c6.72,5.83,15.95,7.74,24.62,7.81c8.45-0.59,17.57-2.56,23.75-8.78c2.6-2.51,3.49-6.23,3.55-9.73
	c0.02-26.01-0.04-52.02,0.02-78.03c0-5.17,4.18-9.57,9.21-10.32c6.63-1.04,13.39-0.6,20.08-0.52c-0.14,29.64-0.01,59.27-0.07,88.91
	c-0.03,4.03,1.41,8.23,4.61,10.84c6.82,5.78,16.12,7.67,24.85,7.62c8.4-0.63,17.51-2.68,23.51-9.04c2.53-2.43,3.27-6.12,3.3-9.49
	c-0.02-24.96,0-49.92-0.01-74.87c0.09-2.72,0.08-5.58,1.44-8.01c1.61-3.38,5.35-5.14,8.9-5.64c6.35-0.75,12.77-0.33,19.15-0.42
	c0.02,28.67,0,57.34,0.02,86.01c0.09,5.62-0.23,11.43-2.62,16.62c-4.36,9.12-12.34,16.22-21.25,20.79
	c-11.86,5.8-25.29,7.91-38.41,7.54c-13.58-0.55-27.42-4.44-38.1-13.13c-14.22,10.47-32.47,14.19-49.85,12.94
	c-14.84-1.27-29.75-6.71-40.36-17.45c-7-6.4-10.31-15.92-10.16-25.28c0-25.32-0.07-50.65,0.04-75.97
	C2723.31-489.07,2726.71-494.09,2731.86-495.15z"/>
<g>
	<path fill="#00558F" d="M2992.86-485.26c4.8-8.82,15.94-11.09,25.17-11.23c9.09,0.47,20.19,3.03,24.24,12.22
		c17.24,38.81,34.41,77.65,51.64,116.47c-7.28,0.11-14.56,0.02-21.83,0.05c-5.55,0.11-10.8-3.3-13.09-8.31
		c-3.98-8.8-7.81-17.66-11.8-26.44c-19.98,0.09-39.97-0.17-59.94,0.12c-4.89,11.62-10.26,23.03-15.22,34.62
		c-6.71-0.15-13.46,0.35-20.13-0.26c-5.14-0.57-8.74-6.42-6.11-11.12C2961.55-414.48,2977.09-449.92,2992.86-485.26z M2997.9-426.03
		c12.98,0.03,25.97,0.07,38.96-0.02c-6.42-14.62-13.11-29.12-19.42-43.79C3010.7-455.34,3004.38-440.64,2997.9-426.03z"/>
</g>
<path fill="#00558F" d="M3089.47-488.92c-0.21-4.03,3.73-6.72,7.4-6.81c6.27-0.07,12.54-0.01,18.82-0.02
	c12.39,16.26,24.81,32.5,37.22,48.74c1.26,1.53,2.28,4.07,4.76,3.24c11.31-14.89,22.62-29.77,34.02-44.58
	c3.32-4.43,8.67-7.38,14.25-7.41c8.64,0.02,17.28-0.01,25.92,0.02c-19.88,26.01-39.71,52.05-59.61,78.04c-0.75,0.74-1.08,1.64-1,2.7
	c-0.01,15.74,0.01,31.49-0.01,47.24c-6.07-0.11-12.16,0.26-18.21-0.19c-4.96-0.49-10.07-3.64-10.82-8.9
	c-0.72-13.25,0.38-26.72-0.55-39.9c-15.95-21.03-31.99-41.99-47.95-63.02C3091.64-482.43,3089.05-485.29,3089.47-488.92z"/>
<path fill="#4EBDEC" d="M5991.09-653.12c5.18-1.03,10.59,0.22,15.89-0.13c52.06,0.93,104.16,4.12,155.84,10.76
	c38.09,4.89,75.97,11.76,113.05,21.81c-34.27,23.34-68.88,46.19-103.53,68.96c-30.54,20.28-61.8,39.52-94.09,56.91
	c-35.48,19.24-71.84,36.82-108.68,53.3c-40.23,17.91-80.88,34.99-122.62,49.06c-43.04,14.78-86.8,27.37-130.9,38.56
	c-89.98,22.54-181.53,39.3-273.99,47.39c-53.14,4.86-106.51,6.9-159.85,6.15c-25.43-0.56-50.85-0.9-76.25-2.49
	c-29.75-1.88-59.48-4.34-89.1-7.78c-14.18-1.72-28.72-2.78-42.2-7.75l-0.7-0.9c9.6,1.28,19.3,1.02,28.98,1.02
	c28.06,0.02,56.09-1.68,84.07-3.67c26.97-1.77,53.78-5.33,80.59-8.78c49.1-6.53,98.24-13.04,146.98-21.95
	c87.56-17.47,174.91-36.68,260.44-62.47c40.47-12.07,80.24-26.62,118.52-44.52c34.4-16.14,67.88-34.59,98.42-57.3
	c14.54-10.97,28.5-22.9,40.26-36.87c12.28-15.05,23.38-31.09,32.96-48c9.65-16.63,17.83-34.04,26.27-51.29L5991.09-653.12z"/>
<g>
	<path fill="#64AF53" d="M1489.63-227.086c25.8-1.38,51.62-2.23,77.46-2.32c7,0.38,14.05,0.14,21.05,0.93
		c6.08,0.74,10.98,5.55,12.88,11.23c3.57,10.64,1.78,22.05,0.01,32.85c-4.04,22.58-9.78,44.81-15.49,67.02
		c-21.95,86.58-42.78,173.44-65.68,259.78c-14.55,55.32-30.26,110.35-47.02,165.04C1478.49,129.284,1483.97-48.916,1489.63-227.086z
		"/>
	<path fill="#64AF53" d="M1414.19-218.576c9.67-1.78,19.39-3.37,29.18-4.47c2.97,169.58,5.92,339.17,8.86,508.76
		c0.65,30.99,0.88,61.99,1.77,92.98c-4.79,2.51-10.67,0.96-15.89,1.41c-7.68,0.5-15.46-1.06-23.04,0.3
		c-48.99,1.79-97.84,6.6-146.34,13.67c-10.15,1.54-20.37,2.74-30.43,4.78c-1.4,0.01-2.76,0.03-4.07,0.06
		c1.27-3.76,0.4-8.06,0.54-12.05c-2.82-158.43-5.21-316.89-8.19-475.31c27.4-26.08,55.04-51.94,83.18-77.22
		c14.75-13.19,30.13-26,47.72-35.26C1375-210.556,1394.72-214.866,1414.19-218.576z"/>
	<path fill="#64AF53" d="M1114.21,23.734c27.17-28.46,54.97-56.33,83.09-83.87c-0.12,54.24-0.84,108.47-0.98,162.71
		c-0.59,12.67,0.15,25.38-0.4,38.06c-0.45,88.49-1.3,176.97-1.76,265.46c-18.99,3.94-38.08,7.48-57.01,11.73
		c-13.89,2.88-27.65,6.36-41.54,9.17c0.61-95.77,1.31-191.54,1.82-287.31c0.54-14.36-0.23-28.76,0.44-43.12
		c0.08-12.97-0.26-25.96,0.25-38.92c0.03-5.3-0.03-10.61-0.48-15.9C1102.58,35.274,1108.75,29.794,1114.21,23.734z"/>
	<path fill="#64AF53" d="M1056.62,86.094c13.31-14.94,26.77-29.75,40.54-44.28c0.41,9.56-0.94,19.08-1.39,28.62
		c-7.24,104.76-14.47,209.53-21.72,314.29c-1.19,16.19-2.09,32.4-3.45,48.56c-63.5,16.96-126.45,36.49-187.39,61.24
		c-10.31,3.93-20.32,8.61-30.64,12.47c4.12-67.11,8.28-134.22,12.43-201.33c10.65-13.29,22.15-25.98,33.19-38.98
		C950.55,206.094,1003.61,146.124,1056.62,86.094z"/>
	<path fill="#64AF53" d="M789.82,400.374c3.31-3.9,6.29-8.12,9.89-11.78c4.4,45.41,9.05,90.8,13.5,136.21
		c-65.28,31.39-128.89,67.1-186.23,111.59c-31.78,24.44-62.34,50.44-92.01,77.37c0.27,0.14,0.82,0.43,1.1,0.57l0.7,0.9
		c-0.96-0.3-1.88-0.61-2.75-0.94c12.27-16.84,25.71-32.86,38.74-49.13c48.11-58.49,96.91-116.41,144.76-175.11
		C741.35,459.944,765.5,430.094,789.82,400.374z"/>
	<path fill="#00558F" d="M1268.73,394.074c48.5-7.07,97.35-11.88,146.34-13.67c12.7,0,25.42-0.51,38.13,0.08l0.36,0.02
		c-8.44,17.25-16.62,34.66-26.27,51.29c-9.58,16.91-20.68,32.95-32.96,48c-11.76,13.97-25.72,25.9-40.26,36.87
		c-30.54,22.71-64.02,41.16-98.42,57.3c-38.28,17.9-78.05,32.45-118.52,44.52c-85.53,25.79-172.88,45-260.44,62.47
		c-48.74,8.91-97.88,15.42-146.98,21.95c-26.81,3.45-53.62,7.01-80.59,8.78c-27.98,1.99-56.01,3.69-84.07,3.67
		c-9.68,0-19.38,0.26-28.98-1.02c-0.28-0.14-0.83-0.43-1.1-0.57c29.67-26.93,60.23-52.93,92.01-77.37
		c57.34-44.49,120.95-80.2,186.23-111.59c12.94-6.29,26.1-12.22,39.36-17.81c10.32-3.86,20.33-8.54,30.64-12.47
		c60.94-24.75,123.89-44.28,187.39-61.24c8.24-2.4,16.63-4.39,25.01-6.29c13.89-2.81,27.65-6.29,41.54-9.17
		c18.93-4.25,38.02-7.79,57.01-11.73c12.24-2.5,24.59-4.42,36.9-6.55c2.34-0.74,4.94,0.46,7.24-0.69
		C1248.36,396.814,1258.58,395.614,1268.73,394.074z"/>
	<path fill="#4EBDEC" d="M1453.2,380.484c5.18-1.03,10.59,0.22,15.89-0.13c52.06,0.93,104.16,4.12,155.84,10.76
		c38.09,4.89,75.97,11.76,113.05,21.81c-34.27,23.34-68.88,46.19-103.53,68.96c-30.54,20.28-61.8,39.52-94.09,56.91
		c-35.48,19.24-71.84,36.82-108.68,53.3c-40.23,17.91-80.88,34.99-122.62,49.06c-43.04,14.78-86.8,27.37-130.9,38.56
		c-89.98,22.54-181.53,39.3-273.99,47.39c-53.14,4.86-106.51,6.9-159.85,6.15c-25.43-0.56-50.85-0.9-76.25-2.49
		c-29.75-1.88-59.48-4.34-89.1-7.78c-14.18-1.72-28.72-2.78-42.2-7.75l-0.7-0.9c9.6,1.28,19.3,1.02,28.98,1.02
		c28.06,0.02,56.09-1.68,84.07-3.67c26.97-1.77,53.78-5.33,80.59-8.78c49.1-6.53,98.24-13.04,146.98-21.95
		c87.56-17.47,174.91-36.68,260.44-62.47c40.47-12.07,80.24-26.62,118.52-44.52c34.4-16.14,67.88-34.59,98.42-57.3
		c14.54-10.97,28.5-22.9,40.26-36.87c12.28-15.05,23.38-31.09,32.96-48c9.65-16.63,17.83-34.04,26.27-51.29L1453.2,380.484z"/>
</g>
<g>
	<g>
		<path fill="#64AE55" d="M375.585,15.39c12.28-0.18,24.69-1.82,36.89,0.09c0.92,1.69,2.26,3.29,2.39,5.29
			c0.67,7.74-1.51,15.32-3.25,22.78c-13.7,52.45-25.33,105.5-41.74,157.2c0.08-13.63,0.94-27.25,1.08-40.88
			c0.96-12.96,0.38-25.97,1.34-38.93C373.315,85.75,374.425,50.58,375.585,15.39z"/>
		<path fill="#64AE55" d="M334.305,22.27c8.09-2.85,16.6-4.71,25.17-5.23c0.12,30.63,1.32,61.23,1.43,91.85
			c0.99,23.33,0.33,46.72,1.49,70.05c-0.01,16.14,0.43,32.27,0.57,48.41c-25.58-0.55-51.05,2.64-76.28,6.52
			c-0.19-10.97-0.01-21.96-0.71-32.92c-0.23-36.02-1.34-72.02-1.56-108.03c-0.75-9.72-0.45-19.46-0.64-29.19
			c6.81-6.28,13.37-12.83,20.33-18.96C313.375,36.34,322.435,26.98,334.305,22.27z"/>
		<path fill="#64AE55" d="M238.725,109.02c11.32-12.04,22.92-23.81,34.8-35.29c0.21,25.74-0.62,51.46-0.59,77.19
			c-0.16,28.48-0.34,56.96-0.5,85.44c-11.49,2.13-22.91,4.57-34.28,7.22c-0.51-8.89-0.18-17.8,0.25-26.68
			C238.435,180.94,238.745,144.98,238.725,109.02z"/>
		<path fill="#64AE55" d="M216.255,133.92c7.37-8.09,14.3-16.59,22.14-24.23c-2.39,45.42-6.22,90.74-9.01,136.13
			c-26.7,6.94-52.95,15.66-78.26,26.68c0.78-0.44,1.56-0.87,2.34-1.31c-0.09-8.79,1.07-17.53,1.35-26.31
			c0.97-13.63,1.64-27.29,2.56-40.93c-0.24-3.75,3.15-5.99,5.23-8.6C180.275,174.68,198.305,154.33,216.255,133.92z"/>
		<path fill="#64AE55" d="M97.475,276.27c12.44-15.25,24.51-30.8,37.12-45.92c1.94,15.76,3.07,31.61,4.95,47.38
			c-13.64,6.57-27.1,13.55-39.95,21.56c-19.93,12.2-37.88,27.26-55.48,42.55c1.62-2.95,3.74-5.57,5.88-8.14
			C65.535,314.32,81.665,295.43,97.475,276.27z"/>
		<path fill="#64AE55" d="M199.895,403.32c4.24-0.16,8.48-0.14,12.71-0.06c-0.09,15.73-0.06,31.47-0.01,47.21
			c-3.91-0.28-8.83,1.06-11.77-2.3c-0.98-4.68-0.2-9.51-0.48-14.25C199.675,423.73,200.115,413.52,199.895,403.32z"/>
	</g>
	<g>
		<path fill="#00528E" d="M286.685,233.87c25.23-3.88,50.7-7.07,76.28-6.52c-7.8,16.55-16.58,33.54-31.38,44.93
			c-24.59,19.02-53.83,30.97-83.5,39.54c-23.85,6.82-48.02,12.51-72.3,17.59c-17.44,3.91-35.14,6.32-52.81,8.87
			c-26.52,3.83-53.32,6.72-80.15,5.87l-0.96-0.05c0.73-0.78,1.48-1.53,2.25-2.26c17.6-15.29,35.55-30.35,55.48-42.55
			c12.85-8.01,26.31-14.99,39.95-21.56c3.82-1.84,7.69-3.55,11.58-5.23c25.31-11.02,51.56-19.74,78.26-26.68
			c2.92-0.76,5.84-1.51,8.77-2.24c11.37-2.65,22.79-5.09,34.28-7.22C277.155,235.41,281.925,234.65,286.685,233.87z"/>
		<g>
			<path fill="#00528E" d="M378.795,377.84c10.72-1.05,22.25,0.88,30.94,7.61c4.59,3.5,8.58,8.54,8.78,14.55
				c0.17,5.29,0,10.58,0.07,15.88c-0.02,4.27,0.38,8.8-1.7,12.71c-3.8,7.69-11.94,12.12-19.87,14.46
				c-10.65,2.67-22.43,2.25-32.4-2.62c-5.26-2.67-10.37-6.39-12.92-11.87c-2.63-5.51-1.49-11.77-1.71-17.65
				c0.17-6.45-1.06-13.64,2.91-19.26C358.735,383.27,368.895,378.96,378.795,377.84z M379.165,389.74
				c-5.79,1.12-12.58,3.99-14.33,10.19c-0.43,6.65-0.07,13.34-0.18,20.01c-0.37,4.12,2.56,7.63,5.96,9.55
				c5.93,3.59,13.2,3.79,19.88,2.84c5.42-1.26,11.86-4.08,13.28-10.03c0.45-6.78,0.13-13.6,0.17-20.39
				c0.23-3.68-2.33-6.74-5.25-8.62C392.955,389.63,385.815,388.69,379.165,389.74z"/>
		</g>
		<g>
			<path fill="#00528E" d="M462.735,377.82c10.23-0.98,21.11,0.87,29.6,6.93c4.76,3.3,8.96,8.19,9.58,14.16
				c0.29,5.34,0.04,10.69,0.13,16.03c-0.09,4.73,0.58,9.81-1.84,14.12c-4.07,7.51-12.16,11.86-20.12,14.14
				c-11.39,2.68-24.08,1.94-34.35-4.05c-5.43-3.2-10.47-8.04-11.84-14.41c-0.69-4.93-0.23-9.92-0.35-14.88
				c0.14-5.97-0.93-12.55,2.64-17.81C441.985,383.28,452.565,378.85,462.735,377.82z M459.535,390.52
				c-4.51,1.44-9.56,4.04-10.97,8.91c-0.57,7.95-0.84,16,0.09,23.93c2.2,5.42,8.22,8.05,13.64,9.09c4.99,0.5,10.24,0.69,15.03-1.06
				c4.37-1.55,9.17-4.47,10.1-9.39c0.32-6.7,0.07-13.42,0.13-20.12c0.23-4.06-3-7.24-6.23-9.16
				C474.755,389.07,466.695,388.42,459.535,390.52z"/>
		</g>
		<g>
			<path fill="#00528E" d="M3.985,380.69c1.99-1.68,4.74-1.43,7.16-1.51c10.68,0.04,21.36,0,32.05,0.03
				c8.25-0.07,17.08,4.31,20.4,12.18c2.92,6.64,1.05,14.84-4.32,19.69c2.88,3.33,5.51,7.24,5.61,11.8
				c0.76,7.02-3.47,13.8-9.48,17.18c-4.02,2.24-8.62,3.39-13.22,3.31c-10.69,0.01-21.38,0.01-32.06,0
				c-2.51,0.02-5.37-0.38-7.01-2.48c-1.19-1.72-1.13-3.91-1.18-5.9c0.05-16.03,0.03-32.05,0.01-48.08
				C1.985,384.73,2.065,382.11,3.985,380.69z M16.795,390.8c-0.01,4.83-0.01,9.65-0.02,14.48c8.8-0.04,17.6,0.1,26.4-0.05
				c3.81,0.02,7.41-3.42,6.86-7.34c0.47-4.37-3.93-7.26-7.89-7.05C33.695,390.7,25.245,390.85,16.795,390.8z M16.775,417.11
				c0,4.8,0.02,9.59-0.01,14.39c8.48-0.01,16.96,0.03,25.44,0c2.53,0.1,5.2-0.77,6.68-2.93c2.94-4.13,0.45-11.02-4.94-11.32
				C34.905,416.9,25.835,417.19,16.775,417.11z"/>
		</g>
		<g>
			<path fill="#00528E" d="M99.685,385.28c1.93-4.92,7.71-6.39,12.48-6.54c4.15,0.28,8.94,1.02,11.64,4.55
				c1.78,2.74,2.81,5.87,4.19,8.82c7.62,17.07,15.06,34.21,22.78,51.23c-5.28-0.53-11.61,1.64-16.05-2.09
				c-3.35-4.43-4.43-10.12-7.29-14.85c-0.25-0.14-0.75-0.43-1-0.57c-9.58-0.31-19.17,0.09-28.75-0.19
				c-3.14,5.72-5.35,11.88-8.2,17.74c-4.18-0.11-8.55,0.56-12.51-1.15c-0.37-0.89-0.74-1.77-1.11-2.64
				C83.385,421.31,91.815,403.41,99.685,385.28z M102.485,414.22c6.56-0.03,13.12-0.02,19.69-0.02c-3.22-7.45-6.55-14.85-9.92-22.23
				C109.125,399.44,105.715,406.79,102.485,414.22z"/>
		</g>
		<path fill="#00528E" d="M161.475,384.84c-0.28-3.55,3.37-5.9,6.61-5.6c27.59-0.1,55.2-0.01,82.79-0.04
			c-0.01,21.4,0.1,42.81-0.05,64.21c-4.12-0.3-8.73,0.79-12.46-1.46c-2.11-1.27-2.06-3.92-2.06-6.06
			c0.05-14.06-0.02-28.11,0.04-42.17c-15.06,0.01-30.12,0.01-45.18,0.03c-5.08,0.04-10.19-0.26-15.24,0.44
			c0.14,16.39,0.01,32.78,0.06,49.18c-4.03-0.19-8.38,0.7-12.12-1.19c-2.29-1.22-2.55-3.97-2.46-6.27
			C161.475,418.89,161.345,401.86,161.475,384.84z"/>
		<g>
			<path fill="#00528E" d="M274.595,379.46c11.51-0.62,23.09-0.06,34.63-0.28c7.52-0.42,15.56,2.38,20.22,8.51
				c4.72,6.04,4.72,15.41-0.34,21.25c-0.42,0.91-2.3,1.98-1.16,3.04c3.69,4,5.71,9.44,4.81,14.9c-1.35,9.8-11.27,16.14-20.63,16.43
				c-10.65,0.16-21.3,0-31.95,0.08c-2.89-0.1-6.27,0.26-8.52-1.91c-1.54-1.39-1.62-3.62-1.67-5.53
				c-0.01-16.34,0.03-32.69-0.02-49.03C269.595,383.73,271.045,379.96,274.595,379.46z M284.755,390.8
				c-0.04,4.82-0.04,9.65-0.04,14.48c8.84-0.04,17.67,0.09,26.5-0.05c4.21,0.02,7.66-4.06,6.76-8.22c-0.04-3.94-4.11-6.25-7.67-6.15
				C301.785,390.68,293.265,390.86,284.755,390.8z M284.735,417.12c-0.02,4.79,0,9.58-0.02,14.38c9.15-0.11,18.31,0.24,27.44-0.15
				c3.79-0.24,5.74-3.88,6.32-7.22c-0.73-1.95-1.2-4.23-3.03-5.47c-2.04-1.71-4.82-1.54-7.3-1.58
				C300.335,417.12,292.535,417.08,284.735,417.12z"/>
		</g>
		<g>
			<path fill="#00528E" d="M276.435,463.03c1.95-4.85,10.4-4.6,12.05,0.39c3.76,8.45,7.43,16.95,11.28,25.37
				c-2.31-0.12-4.7,0.2-6.93-0.51c-1.68-2.1-2.5-4.73-3.56-7.16c-4.62-0.27-9.24-0.47-13.85-0.01c-1.09,2.55-2.19,5.09-3.22,7.67
				c-2.28-0.08-4.84,0.35-6.65-1.37C269.265,479.32,272.735,471.12,276.435,463.03z M277.965,475.54c2.95,0.03,5.9,0.04,8.86,0.02
				c-1.52-3.3-3.01-6.62-4.57-9.9C280.905,468.99,279.445,472.27,277.965,475.54z"/>
		</g>
		<g>
			<path fill="#00528E" d="M319.855,460.6c5.29-1.69,10.92-0.65,16.37-0.92c4.58-0.28,9.52,1.91,11.39,6.31
				c1.77,4.78-1,9.77-5.4,11.86c2.19,3.55,4.11,7.25,6.15,10.89c-2.42-0.14-5.04,0.4-7.31-0.62c-2.26-2.93-3.67-6.39-5.7-9.46
				c-2.97-0.02-5.94-0.04-8.9-0.05c-0.01,3.41,0,6.82-0.03,10.23c-2.14-0.45-5.41,0.75-6.51-1.77
				C319.585,478.26,319.795,469.42,319.855,460.6z M326.425,465.12c0.02,2.71,0.03,5.44,0.05,8.17c4.02-0.11,8.07,0.26,12.07-0.2
				c3.7-0.86,3.89-6.64,0.29-7.73C334.725,464.81,330.555,465.22,326.425,465.12z"/>
		</g>
		<g>
			<path fill="#00528E" d="M416.265,463.03c2.2-5.29,11.29-4.36,12.48,1.29c3.54,8.18,7.21,16.32,10.81,24.48
				c-2.29-0.18-4.74,0.28-6.9-0.58c-1.79-2.01-2.47-4.73-3.54-7.14c-4.62-0.09-9.24-0.11-13.85,0.01c-1.07,2.54-2.18,5.07-3.21,7.63
				c-2.01-0.43-5.85,1.15-6.26-1.74C409.005,478.88,412.785,471.01,416.265,463.03z M417.815,475.57c2.93,0,5.86,0,8.8-0.01
				c-1.47-3.31-2.97-6.62-4.42-9.93C420.715,468.93,419.275,472.26,417.815,475.57z"/>
		</g>
		<path fill="#00528E" d="M461.775,461.42c2.26-2.61,6.07-1.52,9.09-1.75c-4.48,6.17-9.54,11.95-13.71,18.33
			c-0.44,3.6-0.11,7.25-0.18,10.87c-2.08-0.14-4.15-0.31-6.21-0.55c-0.4-3.48-0.38-6.99-0.33-10.48c-3.95-5.89-9.3-10.9-12.3-17.38
			c2-0.45,4.04-0.78,6.1-0.95c3.21,4.09,6.22,8.34,9.6,12.3C456.495,468.36,458.975,464.76,461.775,461.42z"/>
		<path fill="#00528E" d="M479.955,459.8c7.66-1.88,17.58-0.37,21.45,7.37c-2.19,0.47-4.79,2.21-6.78,0.35
			c-3.93-3.45-9.92-4.26-14.54-1.74c-1.83,0.75-2.36,3.78-0.42,4.67c4.2,2.11,9.14,0.35,13.56,1.62c3.82,0.81,7.84,3.47,8.15,7.71
			c0.15,4.31-3.65,7.57-7.52,8.64c-7.93,2.25-18.28,1.09-22.65-6.83c2.14-0.77,4.78-2.39,6.9-0.66c2.55,1.99,5.63,3.45,8.96,3.24
			c2.75-0.21,6.18-0.51,7.68-3.2c0.38-2.18-1.73-3.66-3.68-3.73c-4.07-0.32-8.21-0.12-12.22-0.99c-3.78-0.89-7.54-4.18-7.1-8.37
			C472.005,463.59,476.105,460.76,479.955,459.8z"/>
		<path fill="#00528E" d="M304.705,460.47c2.05-0.39,4.11-0.75,6.18-1.09c0.87,9.79,0.25,19.64,0.38,29.46
			c-2.17-0.12-4.32-0.27-6.46-0.52C304.345,479.04,304.505,469.74,304.705,460.47z"/>
		<path fill="#00528E" d="M355.825,460.54c2.15-0.53,4.35-0.87,6.57-1.04c0.03,6.83-0.13,13.67,0.05,20.5
			c-0.23,1.87,1.52,3,3.08,3.52c3.05,1.22,6.98,0.57,9.18-1.95c0.78-6.52-0.17-13.13,0.43-19.66c0.62-2.9,4.37-1.94,6.52-2.4
			c0.1,6.13,0.03,12.27,0.03,18.4c-1.47,7.02,10.12,8.28,12.65,2.97c0.46-6.8-0.14-13.64,0.33-20.45c2.08-0.36,4.17-0.68,6.28-0.94
			c0.48,7.12,0.58,14.31,0.02,21.43c-0.09,3.05-2.61,5.29-5.11,6.65c-5.47,2.8-12.31,2.29-17.49-0.91
			c-6.95,4.44-18.94,3.86-22.45-4.59C355.415,474.91,355.725,467.71,355.825,460.54z"/>
	</g>
	<g>
		<path fill="#4FBDEE" d="M362.965,227.35c33.2,0.55,66.76,2.64,98.94,11.44c-31.45,22.05-63.88,43.01-98.88,59.03
			c-39.9,18.76-82.27,31.92-125.41,40.75c-60.53,12.59-123.13,15.43-184.5,7.83c-3.5-0.4-6.95-1.18-10.29-2.25
			c26.83,0.85,53.63-2.04,80.15-5.87c17.67-2.55,35.37-4.96,52.81-8.87c24.28-5.08,48.45-10.77,72.3-17.59
			c29.67-8.57,58.91-20.52,83.5-39.54C346.385,260.89,355.165,243.9,362.965,227.35z"/>
	</g>
</g>
</svg>
