<svg width="25" height="25" viewBox="0 0 25 25" fill="none" xmlns="http://www.w3.org/2000/svg">
<circle cx="12.5" cy="12.5" r="12.5" fill="#2FA2C1"/>
<path d="M8.64645 17.3536C8.84171 17.5488 9.15829 17.5488 9.35355 17.3536L12.5355 14.1716C12.7308 13.9763 12.7308 13.6597 12.5355 13.4645C12.3403 13.2692 12.0237 13.2692 11.8284 13.4645L9 16.2929L6.17157 13.4645C5.97631 13.2692 5.65973 13.2692 5.46447 13.4645C5.2692 13.6597 5.2692 13.9763 5.46447 14.1716L8.64645 17.3536ZM8.5 9L8.5 17L9.5 17L9.5 9L8.5 9Z" fill="white"/>
<path d="M17.3536 8.64645C17.1583 8.45118 16.8417 8.45118 16.6464 8.64645L13.4645 11.8284C13.2692 12.0237 13.2692 12.3403 13.4645 12.5355C13.6597 12.7308 13.9763 12.7308 14.1716 12.5355L17 9.70711L19.8284 12.5355C20.0237 12.7308 20.3403 12.7308 20.5355 12.5355C20.7308 12.3403 20.7308 12.0237 20.5355 11.8284L17.3536 8.64645ZM17.5 17L17.5 9L16.5 9L16.5 17L17.5 17Z" fill="white"/>
</svg>
