<svg width="80" height="80" viewBox="0 0 80 80" fill="none" xmlns="http://www.w3.org/2000/svg">
<rect width="80" height="80" rx="15" fill="#F9AA29"/>
<path d="M40.4375 23.0625C50.0703 23.0625 57.875 30.8672 57.875 40.5C57.875 50.1328 50.0703 57.9375 40.4375 57.9375C30.8047 57.9375 23 50.1328 23 40.5C23 30.8672 30.8047 23.0625 40.4375 23.0625ZM42.125 37.125C42.0547 37.6875 42.8281 37.9688 43.1797 37.4062L43.8125 36.2109C44.375 35.2969 45.1484 34.7344 46.0625 34.7344C46.9062 34.7344 47.6797 35.2969 48.2422 36.2109L48.9453 37.4062C49.2266 37.9688 50 37.6875 50 37.125C49.7188 34.1719 47.6797 32.0625 46.0625 32.0625C44.375 32.0625 42.3359 34.1719 42.125 37.125ZM30.875 37.125C30.8047 37.6875 31.5781 37.9688 31.9297 37.4062L32.5625 36.2109C33.125 35.2969 33.8984 34.7344 34.8125 34.7344C35.6562 34.7344 36.4297 35.2969 36.9922 36.2109L37.6953 37.4062C37.9766 37.9688 38.75 37.6875 38.75 37.125C38.4688 34.1719 36.4297 32.0625 34.8125 32.0625C33.125 32.0625 31.0859 34.1719 30.875 37.125ZM50.9844 44.0156C51.125 43.3828 50.5625 42.75 49.9297 42.75H30.9453C30.2422 42.75 29.6797 43.3828 29.8203 44.0156C30.4531 49.0078 34.6719 52.875 39.875 52.875H41C46.1328 52.875 50.4219 49.0078 50.9844 44.0156Z" fill="white" fill-opacity="0.9"/>
</svg>
