<?xml version="1.0" encoding="utf-8"?>
<!-- Generator: Adobe Illustrator 25.0.1, SVG Export Plug-In . SVG Version: 6.00 Build 0)  -->
<svg version="1.1" id="Layer_1" xmlns="http://www.w3.org/2000/svg" xmlns:xlink="http://www.w3.org/1999/xlink" x="0px" y="0px"
	 viewBox="0 0 800 600" style="enable-background:new 0 0 800 600;" xml:space="preserve">
<style type="text/css">
	.st0{fill:#E5332B;}
</style>
<g>
	<defs>
		<rect id="SVGID_1_" x="286.62" y="277.19" width="226.76" height="45.62"/>
	</defs>
	<clipPath id="SVGID_2_">
		<use xlink:href="#SVGID_1_"  style="display:none;overflow:visible;"/>
	</clipPath>
</g>
<g>
	<g>
		<path class="st0" d="M95.52,195.38h24.57l4.19,75.51l35.06-75.51h25.77l-56.03,109.97h-22.17L95.52,195.38z"/>
	</g>
	<g>
		<path class="st0" d="M188.72,195.69h24.57l-17.68,85.99h-24.57L188.72,195.69z"/>
	</g>
	<g>
		<path class="st0" d="M410.75,315.24h24.57l-17.68,85.99h-24.57L410.75,315.24z"/>
	</g>
	<g>
		<path class="st0" d="M285.44,246.62h-50.28c-0.6,2.7-2.02,19.18,17.38,19.18c12.73,0,16.48-1.5,22.47-4.49l2.7,14.38
			c-8.09,4.8-15.89,5.7-24.57,6.59c-25.24,0-41.05-7.49-40.75-35.66c0.46-44.43,38.14-53.22,47.94-53.04
			C306.17,194.48,285.44,246.62,285.44,246.62z M266.17,230.44c1.2-3.15,6.72-22.47-8.09-22.47c-8.97,0-14.38,4.2-18.54,12.42
			c-1.83,4.52-2.73,7.51-3.48,10.06H266.17z"/>
	</g>
	<g>
		<path class="st0" d="M450.84,246.62h-50.28c-0.6,2.7-2.02,19.18,17.38,19.18c12.72,0,16.48-1.5,22.47-4.49l2.7,14.38
			c-8.09,4.8-15.88,5.7-24.57,6.59c-25.24,0-41.05-7.49-40.75-35.66c0.46-44.43,38.14-53.22,47.94-53.04
			C471.57,194.48,450.84,246.62,450.84,246.62z M431.57,230.44c1.2-3.15,6.72-22.47-8.09-22.47c-8.97,0-14.38,4.2-18.54,12.42
			c-1.83,4.52-2.73,7.51-3.48,10.06H431.57z"/>
	</g>
	<g>
		<path class="st0" d="M308.83,182.68c0,0,2.92-4.49,11.69-6.63c8.76-2.14,15.18-0.38,15.18-0.38l-4.73,20.15h12.7l-2.92,15.51
			l-14.05,0.34l-8.76,44.16c-0.32,1.58-2.58,13.93,12.92,9.66c0,0-6.63,20.11-25.62,16.18c-6.22-1.29-14.83-8.09-13.02-19.88
			L308.83,182.68z"/>
	</g>
	<g>
		<path class="st0" d="M474.68,182.68c0,0,2.92-4.49,11.68-6.63c8.77-2.14,15.18-0.38,15.18-0.38l-4.73,20.15h12.7l-2.92,15.51
			l-14.05,0.34l-8.76,44.16c-0.32,1.58-2.58,13.93,12.92,9.66c0,0-6.63,20.11-25.62,16.18c-6.22-1.29-14.83-8.09-13.02-19.88
			L474.68,182.68z"/>
	</g>
	<g>
		<path class="st0" d="M354.85,195.58h23.76l-16.4,82.5c-5.18,24.48-28.65,47.84-59.55,37.75c-11.01-3.6-18.43-14.61-16.85-25.62
			c0,0,9.35,8.12,23.15,8.76c19.1,0.9,27.74-18.36,28.99-24.27L354.85,195.58z"/>
	</g>
	<g>
		<path class="st0" d="M365.2,401.23h-33.26l-14.68,24.57H293.3l66.22-110.53h25.77l4.19,110.53H365.2V401.23z M365.13,385.5v-45.13
			l-25.28,45.13H365.13z"/>
	</g>
	<g>
		<path class="st0" d="M484.46,330.89c-3.93-1.01-12.58-1.68-16.52,0l-14.61,70.56h-24.38l16.85-81.01
			c14.16-8.31,31.8-8.43,44.38-6.63L484.46,330.89z"/>
	</g>
	<path class="st0" d="M494.25,397c-2.38,4.16-7.19,5.88-10.74,3.84c-3.57-2.04-4.52-7.06-2.15-11.21c2.38-4.16,7.19-5.87,10.76-3.84
		C495.67,387.83,496.63,392.85,494.25,397z"/>
	<g>
		<path class="st0" d="M539.74,384.94l1.57,11.12c-6.63,5.84-18.38,5.44-23.48,3.48c-16.18-6.18-14.2-26.67-11.8-36.07
			c2.47-9.69,6.52-16.74,12.58-22.36c6.52-5.09,14.49-7.87,23.66-5.9c7.47,1.4,11.06,4.44,11.06,4.44l-6.07,9.44
			c-14.16-7.64-23.51,13.4-24.38,19.66C520.07,388.87,531.2,390.44,539.74,384.94z"/>
	</g>
	<g>
		<g>
			<path class="st0" d="M589.66,335.99c-17.78-5.77-31.52,2.87-40.03,22.32c-8.5,19.44-6.47,34.93,9.21,41.8
				c15.96,4.94,31.94-0.55,40.45-20C607.79,360.66,605.95,341.28,589.66,335.99z M584.68,369.09c-2.49,13.55-8.15,19.86-15.28,19.78
				c-7.14-1.3-7.3-7.98-4.82-21.52c2.49-13.56,7.85-21.43,15.83-21.18C587.72,346.4,587.17,355.55,584.68,369.09z"/>
		</g>
	</g>
	<g>
		<path class="st0" d="M693.11,400.67h-18.65l9.33-44.61c2.58-7.19-3.52-9.32-5.28-9.55c-5.39-0.67-10.53,1.66-11.24,3.6
			l-10.45,50.57h-18.54l9.44-45.51c0.71-1.94,0.9-7.42-6.52-8.65c-1.02-0.17-7.19-0.79-9.89,1.46l-10.67,52.7h-18.65
			c-0.52,0,12.58-60.56,12.58-60.56c12.14-5.51,23.71-5.06,23.71-5.06c16.52,0.34,21.52,6.52,21.91,6.52
			c0.39,0,10.79-5.96,23.48-6.52c13.6,0,21.57,11.01,18.76,19.66L693.11,400.67z"/>
	</g>
</g>
</svg>
