<svg width="20" height="14" viewBox="0 0 20 14" fill="none" xmlns="http://www.w3.org/2000/svg">
<path d="M19 0C19.5312 0 20 0.46875 20 1V13C20 13.5625 19.5312 14 19 14H1C0.4375 14 0 13.5625 0 13V1C0 0.46875 0.4375 0 1 0H19ZM5.5 9.25C6.21875 9.25 6.8125 8.625 6.8125 7.84375C6.8125 7.21875 6.40625 6.65625 5.84375 6.5L4.4375 6.0625C4.25 6.03125 4.15625 5.875 4.15625 5.6875C4.15625 5.4375 4.3125 5.25 4.53125 5.25H5.40625C5.53125 5.25 5.6875 5.3125 5.8125 5.375C5.90625 5.4375 6.03125 5.4375 6.125 5.34375L6.46875 5C6.59375 4.90625 6.59375 4.71875 6.46875 4.625C6.1875 4.40625 5.84375 4.28125 5.46875 4.28125V3.75C5.46875 3.625 5.375 3.5 5.21875 3.5H4.71875C4.59375 3.5 4.46875 3.625 4.46875 3.75V4.28125C3.75 4.28125 3.15625 4.90625 3.15625 5.6875C3.15625 6.3125 3.5625 6.84375 4.125 7.03125L5.53125 7.46875C5.71875 7.5 5.8125 7.65625 5.8125 7.84375C5.8125 8.09375 5.65625 8.25 5.4375 8.25H4.5625C4.4375 8.25 4.28125 8.21875 4.15625 8.15625C4.0625 8.09375 3.9375 8.09375 3.84375 8.1875L3.5 8.53125C3.375 8.625 3.375 8.8125 3.5 8.90625C3.78125 9.125 4.125 9.25 4.5 9.25V9.75C4.5 9.90625 4.59375 10 4.75 10H5.25C5.375 10 5.5 9.90625 5.5 9.75V9.25ZM13 8.75V8.25C13 8.125 12.875 8 12.75 8H9.25C9.09375 8 9 8.125 9 8.25V8.75C9 8.90625 9.09375 9 9.25 9H12.75C12.875 9 13 8.90625 13 8.75ZM18 8.75V8.25C18 8.125 17.875 8 17.75 8H15.25C15.0938 8 15 8.125 15 8.25V8.75C15 8.90625 15.0938 9 15.25 9H17.75C17.875 9 18 8.90625 18 8.75ZM18 5.75V5.25C18 5.125 17.875 5 17.75 5H9.25C9.09375 5 9 5.125 9 5.25V5.75C9 5.90625 9.09375 6 9.25 6H17.75C17.875 6 18 5.90625 18 5.75Z" fill="#FE6B38"/>
</svg>
